HIERARCHY
ROOT Hips
{
	OFFSET 52.127499 -13.206715 85.400902
	CHANNELS 6 Xposition Yposition Zposition Xrotation Yrotation Zrotation
	JOINT spine
	{
		OFFSET 0.000000 -0.367607 6.392601
		CHANNELS 3 Xrotation Yrotation Zrotation
		JOINT spine1
		{
			OFFSET 0.000000 -0.000001 9.176109
			CHANNELS 3 Xrotation Yrotation Zrotation
			JOINT spine2
			{
				OFFSET 0.000000 -0.000002 8.792381
				CHANNELS 3 Xrotation Yrotation Zrotation
				JOINT Neck
				{
					OFFSET 0.000000 -1.076243 22.573700
					CHANNELS 3 Xrotation Yrotation Zrotation
					JOINT Head
					{
						OFFSET 0.000000 -0.000001 6.820114
						CHANNELS 3 Xrotation Yrotation Zrotation
						End Site
						{
							OFFSET 0.000000 5.444267 16.508499
						}
					}
				}
				JOINT RightShoulder
				{
					OFFSET -3.702209 0.515507 9.495087
					CHANNELS 3 Xrotation Yrotation Zrotation
					JOINT RightArm
					{
						OFFSET 0.000000 -0.000003 12.453705
						CHANNELS 3 Xrotation Yrotation Zrotation
						JOINT RightArmRoll
						{
							OFFSET 0.000000 -0.000001 6.286850
							CHANNELS 3 Xrotation Yrotation Zrotation
							JOINT RightForeArm
							{
								OFFSET 0.000000 -0.000003 18.311401
								CHANNELS 3 Xrotation Yrotation Zrotation
								JOINT RightForeArmRoll
								{
									OFFSET 0.000000 -0.000001 7.054825
									CHANNELS 3 Xrotation Yrotation Zrotation
									JOINT RightHand
									{
										OFFSET 0.000000 -0.000002 14.157501
										CHANNELS 3 Xrotation Yrotation Zrotation
										End Site
										{
											OFFSET 0.000000 0.000000 0.100006
										}
									}
								}
							}
						}
					}
				}
				JOINT LeftShoulder
				{
					OFFSET 3.702209 0.515507 9.495087
					CHANNELS 3 Xrotation Yrotation Zrotation
					JOINT LeftArm
					{
						OFFSET 0.000000 -0.000003 12.453705
						CHANNELS 3 Xrotation Yrotation Zrotation
						JOINT LeftArmRoll
						{
							OFFSET 0.000000 -0.000001 6.286865
							CHANNELS 3 Xrotation Yrotation Zrotation
							JOINT LeftForeArm
							{
								OFFSET 0.000000 -0.000003 18.311401
								CHANNELS 3 Xrotation Yrotation Zrotation
								JOINT LeftForeArmRoll
								{
									OFFSET 0.000000 -0.000001 7.054825
									CHANNELS 3 Xrotation Yrotation Zrotation
									JOINT LeftHand
									{
										OFFSET 0.000000 -0.000002 14.157501
										CHANNELS 3 Xrotation Yrotation Zrotation
										End Site
										{
											OFFSET 0.000000 0.000000 0.100006
										}
									}
								}
							}
						}
					}
				}
			}
		}
	}
	JOINT RightUpLeg
	{
		OFFSET -5.666161 0.871611 -1.039032
		CHANNELS 3 Xrotation Yrotation Zrotation
		JOINT RightUpLegRoll
		{
			OFFSET 0.000000 -0.000003 16.600502
			CHANNELS 3 Xrotation Yrotation Zrotation
			JOINT RightLeg
			{
				OFFSET 0.000000 0.000003 -20.557198
				CHANNELS 3 Xrotation Yrotation Zrotation
				JOINT RightLegRoll
				{
					OFFSET 0.000000 -0.000003 20.624397
					CHANNELS 3 Xrotation Yrotation Zrotation
					JOINT RightFoot
					{
						OFFSET 0.000000 -0.000003 17.166397
						CHANNELS 3 Xrotation Yrotation Zrotation
						JOINT RightToeBase
						{
							OFFSET 0.000000 -0.000003 14.350204
							CHANNELS 3 Xrotation Yrotation Zrotation
							End Site
							{
								OFFSET 0.006081 0.801060 6.949707
							}
						}
					}
				}
			}
		}
	}
	JOINT LeftUpLeg
	{
		OFFSET 5.666161 0.871611 -1.039032
		CHANNELS 3 Xrotation Yrotation Zrotation
		JOINT LeftUpLegRoll
		{
			OFFSET 0.000000 -0.000003 16.600601
			CHANNELS 3 Xrotation Yrotation Zrotation
			JOINT LeftLeg
			{
				OFFSET 0.000000 -0.000004 20.557098
				CHANNELS 3 Xrotation Yrotation Zrotation
				JOINT LeftLegRoll
				{
					OFFSET 0.000000 -0.000003 20.815102
					CHANNELS 3 Xrotation Yrotation Zrotation
					JOINT LeftFoot
					{
						OFFSET 0.000000 -0.000003 16.975693
						CHANNELS 3 Xrotation Yrotation Zrotation
						JOINT LeftToeBase
						{
							OFFSET 0.000000 -0.000003 14.350204
							CHANNELS 3 Xrotation Yrotation Zrotation
							End Site
							{
								OFFSET -0.027260 0.801060 6.949707
							}
						}
					}
				}
			}
		}
	}
}
MOTION
Frames: 4
Frame Time: 0.041667
53.163101 -11.764112 85.621498 -3.475668 0.596101 -11.250394 -1.139726 0.443706 -0.356195 1.726275 0.903860 -0.714229 3.371382 0.895199 -0.724831 9.144871 -2.253519 -0.657364 4.149382 2.872942 -0.727126 -1.854273 -64.193239 -2.746271 -47.491320 -113.983187 -42.476660 0.000001 0.000003 -0.000005 9.350881 -14.507728 0.805043 -0.000007 -0.000000 -3.000000 -5.000187 -7.998754 0.000181 2.587758 56.729796 -3.360176 -41.198014 116.507700 39.670452 -0.000001 0.000001 0.000003 6.472999 11.569993 -0.128344 0.000002 0.000003 2.999988 -5.000209 7.998724 -0.000156 1.065747 -170.742585 3.709726 -179.999991 0.000004 -1.165008 174.035979 -3.681024 -0.605294 -0.000001 0.000001 0.020852 68.497358 6.733490 2.572178 25.458268 -7.355618 0.001956 3.072207 173.268594 -0.795974 -0.000004 -0.000004 -1.212960 -6.415446 0.520527 0.507540 0.000003 -0.000001 -0.113964 70.262682 -6.857787 -2.132396 25.456935 7.346987 0.000002 
53.155296 -11.758814 85.622589 -3.471290 0.597236 -11.244170 -1.140882 0.443491 -0.357009 1.723934 0.902132 -0.714785 3.369040 0.893469 -0.725378 9.148442 -2.234115 -0.662181 4.145325 2.844292 -0.730917 -1.876749 -64.192556 -2.771908 -47.502029 -113.991568 -42.490877 0.000002 0.000002 -0.000003 9.354973 -14.507467 0.804472 -0.000006 -0.000000 -3.000000 -5.000189 -7.998753 0.000181 2.615227 56.733723 -3.392159 -41.158423 116.497496 39.662635 0.000003 0.000001 0.000006 6.585962 11.587033 -0.139231 0.000001 0.000003 2.999990 -5.000207 7.998724 -0.000156 1.064225 -170.747571 3.706989 -179.999991 0.000004 -1.165007 174.035652 -3.681023 -0.605312 -0.000002 0.000001 0.020852 68.497583 6.733184 2.573404 25.458268 -7.355618 0.001956 3.058091 173.268512 -0.789577 -0.000005 -0.000004 -1.212980 -6.432839 0.513361 0.507947 0.000003 -0.000001 -0.113955 70.270332 -6.855597 -2.138040 25.456931 7.346986 0.000001 
53.160595 -11.776014 85.625198 -3.466811 0.598405 -11.237748 -1.142054 0.443267 -0.357857 1.721602 0.900332 -0.715337 3.366708 0.891664 -0.725922 9.151694 -2.213361 -0.667241 4.141430 2.813636 -0.734873 -1.900593 -64.191641 -2.799090 -47.511943 -114.000980 -42.504452 0.000001 0.000002 -0.000004 9.359396 -14.507190 0.803907 -0.000006 -0.000000 -3.000001 -5.000189 -7.998753 0.000180 2.643184 56.737729 -3.424700 -41.119228 116.486254 39.655747 -0.000001 0.000002 0.000004 6.701772 11.604251 -0.150453 0.000001 0.000003 2.999989 -5.000209 7.998723 -0.000155 1.062663 -170.751574 3.704083 -179.999991 0.000004 -1.165007 174.035337 -3.681020 -0.605333 -0.000002 0.000001 0.020852 68.497809 6.732875 2.574633 25.458268 -7.355616 0.001955 3.043602 173.268430 -0.783254 -0.000005 -0.000004 -1.213010 -6.450752 0.506284 0.508346 0.000003 -0.000001 -0.113943 70.278214 -6.853445 -2.143580 25.456936 7.346986 0.000002 
53.160397 -11.773913 85.623703 -3.462239 0.599600 -11.231123 -1.143203 0.443039 -0.358721 1.719281 0.898480 -0.715887 3.364386 0.889808 -0.726465 9.154724 -2.191681 -0.672472 4.137684 2.781593 -0.738952 -1.925396 -64.190616 -2.827358 -47.522213 -114.010522 -42.518604 -0.000000 0.000001 -0.000005 9.364064 -14.507004 0.803355 -0.000007 -0.000000 -3.000000 -5.000189 -7.998753 0.000180 2.671480 56.741738 -3.457634 -41.077782 116.475475 39.646714 0.000001 0.000001 0.000004 6.819586 11.621570 -0.161930 0.000001 0.000003 2.999990 -5.000210 7.998722 -0.000155 1.061057 -170.756560 3.701045 -179.999991 0.000004 -1.165006 174.035051 -3.680028 -0.605247 -0.000001 0.000001 0.020851 68.498130 6.732542 2.575849 25.458267 -7.355616 0.001956 3.028837 173.267324 -0.777029 -0.000004 -0.000004 -1.213061 -6.469016 0.499266 0.508737 0.000003 -0.000001 -0.113932 70.286226 -6.851360 -2.148921 25.456933 7.346986 0.000003 
